<mxfile host="app.diagrams.net" modified="2023-08-23T09:33:37.050Z" agent="Mozilla/5.0 (Windows NT 10.0; Win64; x64; rv:102.0) Gecko/20100101 Firefox/102.0" etag="7yqfinUuOKoHNLGDaFQu" version="21.6.9" type="device">
  <diagram name="Page-1" id="Uyu_2NU0-29zlIZRDY2-">
    <mxGraphModel dx="683" dy="372" grid="1" gridSize="10" guides="1" tooltips="1" connect="1" arrows="1" fold="1" page="1" pageScale="1" pageWidth="850" pageHeight="1100" math="0" shadow="0">
      <root>
        <mxCell id="0" />
        <mxCell id="1" parent="0" />
        <mxCell id="KEeMsO4b_mtfhEjWqq67-3" value="Environmental Control System" style="rounded=0;whiteSpace=wrap;html=1;" vertex="1" parent="1">
          <mxGeometry x="180" y="250" width="120" height="190" as="geometry" />
        </mxCell>
        <mxCell id="KEeMsO4b_mtfhEjWqq67-4" value="&lt;div&gt;Access Control System&lt;/div&gt;" style="rounded=0;whiteSpace=wrap;html=1;" vertex="1" parent="1">
          <mxGeometry x="450" y="250" width="120" height="100" as="geometry" />
        </mxCell>
        <mxCell id="KEeMsO4b_mtfhEjWqq67-5" value="Automated Bottling System" style="rounded=0;whiteSpace=wrap;html=1;" vertex="1" parent="1">
          <mxGeometry x="450" y="380" width="120" height="60" as="geometry" />
        </mxCell>
        <mxCell id="KEeMsO4b_mtfhEjWqq67-8" value="" style="shape=flexArrow;endArrow=classic;html=1;rounded=0;entryX=1.011;entryY=0.16;entryDx=0;entryDy=0;entryPerimeter=0;" edge="1" parent="1" target="KEeMsO4b_mtfhEjWqq67-3">
          <mxGeometry width="50" height="50" relative="1" as="geometry">
            <mxPoint x="450" y="280" as="sourcePoint" />
            <mxPoint x="410" y="230" as="targetPoint" />
          </mxGeometry>
        </mxCell>
        <mxCell id="KEeMsO4b_mtfhEjWqq67-10" value="Personnel Count/&lt;br&gt;Occupancy" style="text;html=1;align=center;verticalAlign=middle;resizable=0;points=[];autosize=1;strokeColor=none;fillColor=none;" vertex="1" parent="1">
          <mxGeometry x="320" y="230" width="120" height="40" as="geometry" />
        </mxCell>
        <mxCell id="KEeMsO4b_mtfhEjWqq67-11" value="" style="shape=flexArrow;endArrow=classic;html=1;rounded=0;" edge="1" parent="1">
          <mxGeometry width="50" height="50" relative="1" as="geometry">
            <mxPoint x="310" y="409.76" as="sourcePoint" />
            <mxPoint x="440" y="409.76" as="targetPoint" />
          </mxGeometry>
        </mxCell>
        <mxCell id="KEeMsO4b_mtfhEjWqq67-12" value="Suspend Activities" style="text;html=1;align=center;verticalAlign=middle;resizable=0;points=[];autosize=1;strokeColor=none;fillColor=none;" vertex="1" parent="1">
          <mxGeometry x="305" y="380" width="120" height="30" as="geometry" />
        </mxCell>
        <mxCell id="KEeMsO4b_mtfhEjWqq67-13" value="Fire/Smoke Control" style="rounded=0;whiteSpace=wrap;html=1;" vertex="1" parent="1">
          <mxGeometry x="187.5" y="390" width="105" height="40" as="geometry" />
        </mxCell>
        <mxCell id="KEeMsO4b_mtfhEjWqq67-14" value="Temp/Humidity" style="rounded=0;whiteSpace=wrap;html=1;" vertex="1" parent="1">
          <mxGeometry x="187.5" y="260" width="105" height="20" as="geometry" />
        </mxCell>
        <mxCell id="KEeMsO4b_mtfhEjWqq67-15" value="Lighting" style="rounded=0;whiteSpace=wrap;html=1;" vertex="1" parent="1">
          <mxGeometry x="188" y="290" width="102" height="20" as="geometry" />
        </mxCell>
        <mxCell id="KEeMsO4b_mtfhEjWqq67-19" value="" style="group;rotation=-15;" vertex="1" connectable="0" parent="1">
          <mxGeometry x="310" y="330" width="130" height="30" as="geometry" />
        </mxCell>
        <mxCell id="KEeMsO4b_mtfhEjWqq67-16" value="" style="shape=flexArrow;endArrow=classic;html=1;rounded=0;" edge="1" parent="KEeMsO4b_mtfhEjWqq67-19">
          <mxGeometry width="50" height="50" relative="1" as="geometry">
            <mxPoint x="6" y="46" as="sourcePoint" />
            <mxPoint x="132" y="12" as="targetPoint" />
          </mxGeometry>
        </mxCell>
        <mxCell id="KEeMsO4b_mtfhEjWqq67-18" value="Unlock doors" style="text;html=1;align=center;verticalAlign=middle;resizable=1;points=[];autosize=1;strokeColor=none;fillColor=none;movable=1;rotatable=1;deletable=1;editable=1;locked=0;connectable=1;rotation=-15;" vertex="1" parent="KEeMsO4b_mtfhEjWqq67-19">
          <mxGeometry x="10" y="1" width="100" height="30" as="geometry" />
        </mxCell>
      </root>
    </mxGraphModel>
  </diagram>
</mxfile>
